# Blender 3.6.5
# www.blender.org
mtllib cubetest.mtl
o cubetest
v -6.400000 -6.400000 6.400001
v -6.400000 6.400000 -6.400001
v -6.400000 -6.400001 -6.400000
v -6.400000 6.400001 6.400000
v 6.400000 -6.400001 -6.400000
v 6.400000 -6.400000 6.400001
v 6.400000 6.400000 -6.400001
v 25.600000 76.800003 25.599995
v 25.600000 25.600002 25.599998
v 51.200001 51.200005 51.199997
v 153.600006 51.200005 51.199997
v 6.400000 6.400001 6.400000
v 25.600000 76.800003 -25.600006
v 25.600000 25.599998 -25.600002
v 51.200001 51.199997 -51.200005
v 153.600006 51.199997 -51.200005
v 153.600006 -51.199997 51.200005
v 51.200001 -51.199997 51.200005
v 51.200001 -51.200005 -51.199997
v 153.600006 -51.200005 -51.199997
v 25.600000 -25.599998 25.600002
v 25.600000 -25.600002 -25.599998
v 25.600000 -76.800003 -25.599995
v 25.600000 -76.800003 25.600006
v -25.600000 -25.599998 25.600002
v -25.600000 -25.600002 -25.599998
v -25.600000 25.600002 25.599998
v -25.600000 25.599998 -25.600002
v -153.600006 51.200005 51.199997
v -51.200001 51.200005 51.199997
v -51.200001 51.199997 -51.200005
v -153.600006 51.199997 -51.200005
v -25.600000 76.800003 -25.600006
v -25.600000 76.800003 25.599995
v -51.200001 -51.199997 51.200005
v -153.600006 -51.199997 51.200005
v -153.600006 -51.200005 -51.199997
v -51.200001 -51.200005 -51.199997
v -25.600000 -76.800003 -25.599995
v -25.600000 -76.800003 25.600006
vn -0.0000 1.0000 -0.0000
vn -0.0000 -0.0000 1.0000
vn -0.0000 -0.0000 -1.0000
vn -0.0000 -1.0000 -0.0000
vn -1.0000 -0.0000 -0.0000
vn 1.0000 -0.0000 -0.0000
vt -2.000000 3.000000
vt 2.000000 -1.000000
vt 2.000000 3.000000
vt -2.000000 7.000000
vt 2.000000 7.000000
vt 2.000000 -5.000000
vt -2.000000 -1.000000
vt -2.000000 -5.000000
vt 4.000000 5.000000
vt 12.000000 -3.000000
vt 12.000000 5.000000
vt 4.000000 -3.000000
vt 0.500000 0.500000
vt -0.500000 1.500000
vt -0.500000 0.500000
vt -4.000000 5.000000
vt -4.000000 -3.000000
vt 6.000000 -1.000000
vt 6.000000 3.000000
vt 0.500000 1.500000
vt -12.000000 5.000000
vt -6.000000 -1.000000
vt -12.000000 -3.000000
vt -6.000000 3.000000
s 0
usemtl 128_grey_2.001
f 21/1/1 26/2/1 25/3/1
f 34/4/2 9/3/2 8/5/2
f 39/6/3 22/7/3 23/8/3
f 33/5/3 14/1/3 28/3/3
f 9/3/4 28/7/4 14/2/4
f 18/9/4 20/10/4 17/11/4
f 18/12/2 11/11/2 10/9/2
f 40/8/2 21/2/2 25/7/2
f 6/13/2 4/14/2 1/15/2
f 19/12/5 10/16/5 15/17/5
f 25/3/5 39/18/5 40/19/5
f 6/20/4 3/15/4 5/13/4
f 34/3/1 13/7/1 33/2/1
f 37/10/3 31/9/3 38/12/3
f 16/21/3 19/17/3 15/16/3
f 17/16/6 16/12/6 11/9/6
f 35/16/6 31/12/6 30/9/6
f 39/7/4 24/3/4 40/1/4
f 21/1/6 23/22/6 22/7/6
f 9/3/6 13/18/6 8/19/6
f 35/17/2 29/21/2 36/23/2
f 2/13/1 12/14/1 7/15/1
f 4/14/5 3/13/5 1/20/5
f 31/12/1 29/11/1 30/9/1
f 16/23/1 10/16/1 11/21/1
f 12/20/6 5/15/6 7/13/6
f 32/17/5 36/9/5 29/16/5
f 27/1/5 33/22/5 28/7/5
f 35/16/4 37/23/4 38/17/4
f 7/14/3 3/13/3 2/20/3
f 21/1/1 22/7/1 26/2/1
f 34/4/2 27/1/2 9/3/2
f 39/6/3 26/2/3 22/7/3
f 33/5/3 13/4/3 14/1/3
f 9/3/4 27/1/4 28/7/4
f 18/9/4 19/12/4 20/10/4
f 18/12/2 17/10/2 11/11/2
f 40/8/2 24/6/2 21/2/2
f 6/13/2 12/20/2 4/14/2
f 19/12/5 18/9/5 10/16/5
f 25/3/5 26/2/5 39/18/5
f 6/20/4 1/14/4 3/15/4
f 34/3/1 8/1/1 13/7/1
f 37/10/3 32/11/3 31/9/3
f 16/21/3 20/23/3 19/17/3
f 17/16/6 20/17/6 16/12/6
f 35/16/6 38/17/6 31/12/6
f 39/7/4 23/2/4 24/3/4
f 21/1/6 24/24/6 23/22/6
f 9/3/6 14/2/6 13/18/6
f 35/17/2 30/16/2 29/21/2
f 2/13/1 4/20/1 12/14/1
f 4/14/5 2/15/5 3/13/5
f 31/12/1 32/10/1 29/11/1
f 16/23/1 15/17/1 10/16/1
f 12/20/6 6/14/6 5/15/6
f 32/17/5 37/12/5 36/9/5
f 27/1/5 34/24/5 33/22/5
f 35/16/4 36/21/4 37/23/4
f 7/14/3 5/15/3 3/13/3
