# Blender 3.6.5
# www.blender.org
mtllib lighttest.mtl
o lighttest
v 1920.000000 -768.000000 -1920.000000
v 1920.000000 -1664.000000 -1664.000000
v 1920.000000 -768.000000 -1664.000000
v 1920.000000 -1664.000000 -1920.000000
v 1920.000000 -1408.000000 1920.000000
v 1920.000000 -1664.000000 1024.000000
v 1920.000000 -1664.000000 1920.000000
v 1920.000000 -768.000000 1024.000000
v 1920.000000 -768.000000 1920.000000
v 1920.000000 -768.000000 128.000000
v 1920.000000 -1664.000000 128.000000
v 1920.000000 -768.000000 -768.000000
v 1920.000000 -1664.000000 -768.000000
v 1920.000000 128.000000 -1920.000000
v 1920.000000 128.000000 -1664.000000
v 1920.000000 128.000000 1024.000000
v 1920.000000 128.000000 1920.000000
v 1920.000000 128.000000 128.000000
v 1920.000000 128.000000 -768.000000
v 1920.000000 1024.000000 -1920.000000
v 1920.000000 1024.000000 -1664.000000
v 1920.000000 1024.000000 1024.000000
v 1920.000000 1024.000000 1920.000000
v 1920.000000 1024.000000 128.000000
v 1920.000000 1024.000000 -768.000000
v 1920.000000 1920.000000 -1920.000000
v 1920.000000 1920.000000 -1664.000000
v 1920.000000 1920.000000 1664.000000
v 1920.000000 1920.000000 1920.000000
v 1920.000000 1920.000000 1024.000000
v 1920.000000 1920.000000 768.000000
v 1920.000000 1920.000000 128.000000
v 1920.000000 1920.000000 -128.000000
v 1920.000000 1920.000000 -768.000000
v 1920.000000 1920.000000 -1024.000000
v 1920.000000 -1920.000000 -1024.000000
v 1920.000000 -1920.000000 -1664.000000
v 1920.000000 -1920.000000 -768.000000
v 1920.000000 -1920.000000 -128.000000
v 1920.000000 -1920.000000 128.000000
v 1920.000000 -1920.000000 768.000000
v 1920.000000 -1920.000000 1024.000000
v 1920.000000 -1920.000000 1664.000000
v 1920.000000 -1920.000000 1920.000000
v 1920.000000 -1920.000000 -1920.000000
v -1920.000000 -1408.000000 1920.000000
v -1920.000000 -768.000000 1664.000000
v -1920.000000 -768.000000 1920.000000
v -1920.000000 -1664.000000 1664.000000
v -1920.000000 -1664.000000 1920.000000
v -1920.000000 -768.000000 -1024.000000
v -1920.000000 -1664.000000 -1920.000000
v -1920.000000 -768.000000 -1920.000000
v -1920.000000 -1664.000000 -1024.000000
v -1920.000000 -768.000000 -128.000000
v -1920.000000 -1664.000000 -128.000000
v -1920.000000 -768.000000 768.000000
v -1920.000000 -1664.000000 768.000000
v -1920.000000 128.000000 1920.000000
v -1920.000000 128.000000 1664.000000
v -1920.000000 128.000000 -1024.000000
v -1920.000000 128.000000 -1920.000000
v -1920.000000 128.000000 -128.000000
v -1920.000000 128.000000 768.000000
v -1920.000000 1024.000000 1920.000000
v -1920.000000 1024.000000 1664.000000
v -1920.000000 1024.000000 -1024.000000
v -1920.000000 1024.000000 -1920.000000
v -1920.000000 1024.000000 -128.000000
v -1920.000000 1024.000000 768.000000
v -1920.000000 1920.000000 1920.000000
v -1920.000000 1920.000000 1664.000000
v -1920.000000 1920.000000 -1024.000000
v -1920.000000 1920.000000 -1920.000000
v -1920.000000 1920.000000 -128.000000
v -1920.000000 1920.000000 768.000000
v -1920.000000 -1920.000000 1664.000000
v -1920.000000 -1920.000000 768.000000
v -1920.000000 -1920.000000 -128.000000
v -1920.000000 -1920.000000 -1024.000000
v -1920.000000 -1920.000000 -1920.000000
v -1920.000000 -1920.000000 1920.000000
v -1664.000000 -1664.000000 -1920.000000
v -1664.000000 -768.000000 -1920.000000
v 1024.000000 -768.000000 -1920.000000
v 1024.000000 -1664.000000 -1920.000000
v 128.000000 -768.000000 -1920.000000
v 128.000000 -1664.000000 -1920.000000
v -768.000000 -768.000000 -1920.000000
v -768.000000 -1664.000000 -1920.000000
v -1664.000000 128.000000 -1920.000000
v 1024.000000 128.000000 -1920.000000
v 128.000000 128.000000 -1920.000000
v -768.000000 128.000000 -1920.000000
v -1664.000000 1024.000000 -1920.000000
v 1024.000000 1024.000000 -1920.000000
v 128.000000 1024.000000 -1920.000000
v -768.000000 1024.000000 -1920.000000
v -1664.000000 1920.000000 -1920.000000
v 1664.000000 1920.000000 -1920.000000
v 1024.000000 1920.000000 -1920.000000
v 768.000000 1920.000000 -1920.000000
v 128.000000 1920.000000 -1920.000000
v -128.000000 1920.000000 -1920.000000
v -768.000000 1920.000000 -1920.000000
v -1024.000000 1920.000000 -1920.000000
v -1024.000000 -1920.000000 -1920.000000
v -1664.000000 -1920.000000 -1920.000000
v -768.000000 -1920.000000 -1920.000000
v -128.000000 -1920.000000 -1920.000000
v 128.000000 -1920.000000 -1920.000000
v 768.000000 -1920.000000 -1920.000000
v 1024.000000 -1920.000000 -1920.000000
v 1280.000000 -1920.000000 -1920.000000
v 1280.000000 -1920.000000 768.000000
v 1280.000000 -1920.000000 1280.000000
v 1280.000000 -1920.000000 1664.000000
v 1280.000000 -1920.000000 -128.000000
v 1280.000000 -1920.000000 256.000000
v 1280.000000 -1920.000000 -256.000000
v 1280.000000 -1920.000000 -768.000000
v 1280.000000 -1920.000000 -1024.000000
v 1280.000000 -1920.000000 -1280.000000
v 1280.000000 -1920.000000 1920.000000
v 768.000000 -1920.000000 -1280.000000
v 768.000000 -1920.000000 -768.000000
v 768.000000 -1920.000000 -256.000000
v 768.000000 -1920.000000 256.000000
v 768.000000 -1920.000000 768.000000
v 768.000000 -1920.000000 1280.000000
v 768.000000 -1920.000000 1664.000000
v 768.000000 -1920.000000 1920.000000
v -1024.000000 -1920.000000 1664.000000
v -1024.000000 -1920.000000 768.000000
v -128.000000 -1920.000000 1664.000000
v -128.000000 -1920.000000 768.000000
v -1024.000000 -1920.000000 -128.000000
v -128.000000 -1920.000000 -128.000000
v 768.000000 -1920.000000 -128.000000
v -1024.000000 -1920.000000 -1024.000000
v 768.000000 -1920.000000 -1024.000000
v -128.000000 -1920.000000 -1024.000000
v -128.000000 -1920.000000 1920.000000
v -1024.000000 -1920.000000 1920.000000
v 1280.000000 -1408.000000 1280.000000
v 768.000000 -1408.000000 768.000000
v 768.000000 -1408.000000 1280.000000
v 1280.000000 -1408.000000 768.000000
v 1280.000000 -1408.000000 256.000000
v 768.000000 -1408.000000 -256.000000
v 768.000000 -1408.000000 256.000000
v 1280.000000 -1408.000000 -256.000000
v 1280.000000 -1408.000000 -768.000000
v 768.000000 -1408.000000 -1280.000000
v 768.000000 -1408.000000 -768.000000
v 1280.000000 -1408.000000 -1280.000000
v 1664.000000 -768.000000 1920.000000
v 1664.000000 128.000000 1920.000000
v -1024.000000 128.000000 1920.000000
v -1024.000000 -768.000000 1920.000000
v -128.000000 128.000000 1920.000000
v -128.000000 -768.000000 1920.000000
v 768.000000 128.000000 1920.000000
v 768.000000 -768.000000 1920.000000
v 1664.000000 1024.000000 1920.000000
v -1024.000000 1024.000000 1920.000000
v -128.000000 1024.000000 1920.000000
v 768.000000 1024.000000 1920.000000
v 1664.000000 1920.000000 1920.000000
v -1024.000000 1920.000000 1920.000000
v -128.000000 1920.000000 1920.000000
v 768.000000 1920.000000 1920.000000
v 1280.000000 -1408.000000 1920.000000
v 1664.000000 -1408.000000 1920.000000
v 768.000000 -1408.000000 1920.000000
v -128.000000 -1408.000000 1920.000000
v -1024.000000 -1408.000000 1920.000000
v 1664.000000 1920.000000 768.000000
v 1664.000000 1920.000000 1664.000000
v -1024.000000 1920.000000 768.000000
v -1024.000000 1920.000000 1664.000000
v -128.000000 1920.000000 768.000000
v -128.000000 1920.000000 1664.000000
v 768.000000 1920.000000 768.000000
v 768.000000 1920.000000 1664.000000
v 1664.000000 1920.000000 -128.000000
v -1024.000000 1920.000000 -128.000000
v -128.000000 1920.000000 -128.000000
v 768.000000 1920.000000 -128.000000
v 1664.000000 1920.000000 -1024.000000
v -1024.000000 1920.000000 -1024.000000
v -128.000000 1920.000000 -1024.000000
v 768.000000 1920.000000 -1024.000000
vn -1.0000 -0.0000 -0.0000
vn 1.0000 -0.0000 -0.0000
vn -0.0000 -0.0000 1.0000
vn -0.0000 1.0000 -0.0000
vn -0.0000 -0.0000 -1.0000
vn -0.0000 -1.0000 -0.0000
vt 3.750000 -0.500000
vt 3.250000 -2.250000
vt 3.250000 -0.500000
vt 3.750000 -2.250000
vt -3.750000 -1.750000
vt -2.000000 -2.250000
vt -3.750000 -2.250000
vt -2.000000 -0.500000
vt -3.750000 -0.500000
vt -0.250000 -0.500000
vt -0.250000 -2.250000
vt 1.500000 -0.500000
vt 1.500000 -2.250000
vt 3.750000 1.250000
vt 3.250000 1.250000
vt -2.000000 1.250000
vt -3.750000 1.250000
vt -0.250000 1.250000
vt 1.500000 1.250000
vt 3.750000 3.000000
vt 3.250000 3.000000
vt -2.000000 3.000000
vt -3.750000 3.000000
vt -0.250000 3.000000
vt 1.500000 3.000000
vt 3.750000 4.750000
vt 3.250000 4.750000
vt -3.250000 4.750000
vt -3.750000 4.750000
vt -2.000000 4.750000
vt -1.500000 4.750000
vt -0.250000 4.750000
vt 0.250000 4.750000
vt 1.500000 4.750000
vt 2.000000 4.750000
vt 2.000000 -2.750000
vt 3.250000 -2.750000
vt 1.500000 -2.750000
vt 0.250000 -2.750000
vt -0.250000 -2.750000
vt -1.500000 -2.750000
vt -2.000000 -2.750000
vt -3.250000 -2.750000
vt -3.750000 -2.750000
vt 3.750000 -2.750000
vt 3.750000 -1.750000
vt -2.500000 -2.750000
vt -2.500000 -0.500000
vt -3.750000 -1.000000
vt -2.500000 -1.500000
vt -2.500000 -2.250000
vt -2.500000 1.250000
vt -3.750000 0.750000
vt -2.500000 0.500000
vt -2.500000 1.500000
vt -3.750000 2.500000
vt -2.500000 2.500000
vt -2.500000 3.000000
vt -2.500000 4.750000
vt -3.750000 4.250000
vt -2.500000 3.500000
vt -1.500000 3.500000
vt -1.500000 2.500000
vt -1.500000 1.500000
vt -1.500000 0.500000
vt -1.500000 -0.500000
vt -1.500000 -1.500000
vt -1.500000 -2.250000
vt 2.000000 -2.250000
vt 2.000000 -0.500000
vt 0.250000 -2.250000
vt 0.250000 -0.500000
vt 2.000000 1.250000
vt 0.250000 1.250000
vt -1.500000 1.250000
vt 2.000000 3.000000
vt -1.500000 3.000000
vt 0.250000 3.000000
vt 20.000000 -19.000000
vt 12.000000 -11.000000
vt 12.000000 -19.000000
vt 20.000000 -11.000000
vt 20.000000 -3.000000
vt 12.000000 5.000000
vt 12.000000 -3.000000
vt 20.000000 5.000000
vt 20.000000 13.000000
vt 12.000000 21.000000
vt 12.000000 13.000000
vt 20.000000 21.000000
vt 2.500000 -1.750000
vt 3.250000 -1.750000
vt 1.500000 -1.750000
vt -0.250000 -1.750000
vt -2.000000 -1.750000
vt 3.750000 -1.000000
vt 3.750000 0.750000
vt 3.750000 2.500000
vt 3.750000 4.250000
vt 20.000000 -21.000000
vt 12.000000 -29.000000
vt 20.000000 -29.000000
vt 12.000000 -21.000000
vt -2.000000 -29.000000
vt -4.000000 -21.000000
vt -4.000000 -29.000000
vt 4.000000 -21.000000
vt 4.000000 -29.000000
vt -16.000000 -29.000000
vt -20.000000 -21.000000
vt -20.000000 -29.000000
vt -12.000000 -21.000000
vt -12.000000 -29.000000
vt 2.000000 -29.000000
vt 16.000000 -29.000000
vt 2.500000 -2.750000
s 0
usemtl 128_grey_2
f 1/1/1 2/2/1 3/3/1
f 1/1/1 4/4/1 2/2/1
f 5/5/1 6/6/1 7/7/1
f 5/5/1 8/8/1 6/6/1
f 5/5/1 9/9/1 8/8/1
f 10/10/1 6/6/1 8/8/1
f 10/10/1 11/11/1 6/6/1
f 12/12/1 11/11/1 10/10/1
f 12/12/1 13/13/1 11/11/1
f 3/3/1 13/13/1 12/12/1
f 3/3/1 2/2/1 13/13/1
f 14/14/1 3/3/1 15/15/1
f 14/14/1 1/1/1 3/3/1
f 16/16/1 9/9/1 17/17/1
f 16/16/1 8/8/1 9/9/1
f 18/18/1 8/8/1 16/16/1
f 18/18/1 10/10/1 8/8/1
f 19/19/1 10/10/1 18/18/1
f 19/19/1 12/12/1 10/10/1
f 15/15/1 12/12/1 19/19/1
f 15/15/1 3/3/1 12/12/1
f 20/20/1 15/15/1 21/21/1
f 20/20/1 14/14/1 15/15/1
f 22/22/1 17/17/1 23/23/1
f 22/22/1 16/16/1 17/17/1
f 24/24/1 16/16/1 22/22/1
f 24/24/1 18/18/1 16/16/1
f 25/25/1 18/18/1 24/24/1
f 25/25/1 19/19/1 18/18/1
f 21/21/1 19/19/1 25/25/1
f 21/21/1 15/15/1 19/19/1
f 26/26/1 21/21/1 27/27/1
f 26/26/1 20/20/1 21/21/1
f 28/28/1 23/23/1 29/29/1
f 28/28/1 22/22/1 23/23/1
f 28/28/1 30/30/1 22/22/1
f 31/31/1 22/22/1 30/30/1
f 31/31/1 24/24/1 22/22/1
f 31/31/1 32/32/1 24/24/1
f 33/33/1 24/24/1 32/32/1
f 33/33/1 25/25/1 24/24/1
f 33/33/1 34/34/1 25/25/1
f 35/35/1 25/25/1 34/34/1
f 35/35/1 21/21/1 25/25/1
f 35/35/1 27/27/1 21/21/1
f 36/36/1 2/2/1 37/37/1
f 36/36/1 13/13/1 2/2/1
f 36/36/1 38/38/1 13/13/1
f 39/39/1 13/13/1 38/38/1
f 39/39/1 11/11/1 13/13/1
f 39/39/1 40/40/1 11/11/1
f 41/41/1 11/11/1 40/40/1
f 41/41/1 6/6/1 11/11/1
f 41/41/1 42/42/1 6/6/1
f 43/43/1 6/6/1 42/42/1
f 43/43/1 7/7/1 6/6/1
f 43/43/1 44/44/1 7/7/1
f 45/45/1 2/2/1 4/4/1
f 45/45/1 37/37/1 2/2/1
f 46/46/2 47/3/2 48/1/2
f 46/46/2 49/2/2 47/3/2
f 46/46/2 50/4/2 49/2/2
f 51/8/2 52/7/2 53/9/2
f 51/8/2 54/6/2 52/7/2
f 55/10/2 54/6/2 51/8/2
f 55/10/2 56/11/2 54/6/2
f 57/12/2 56/11/2 55/10/2
f 57/12/2 58/13/2 56/11/2
f 47/3/2 58/13/2 57/12/2
f 47/3/2 49/2/2 58/13/2
f 59/14/2 47/3/2 60/15/2
f 59/14/2 48/1/2 47/3/2
f 61/16/2 53/9/2 62/17/2
f 61/16/2 51/8/2 53/9/2
f 63/18/2 51/8/2 61/16/2
f 63/18/2 55/10/2 51/8/2
f 64/19/2 55/10/2 63/18/2
f 64/19/2 57/12/2 55/10/2
f 60/15/2 57/12/2 64/19/2
f 60/15/2 47/3/2 57/12/2
f 65/20/2 60/15/2 66/21/2
f 65/20/2 59/14/2 60/15/2
f 67/22/2 62/17/2 68/23/2
f 67/22/2 61/16/2 62/17/2
f 69/24/2 61/16/2 67/22/2
f 69/24/2 63/18/2 61/16/2
f 70/25/2 63/18/2 69/24/2
f 70/25/2 64/19/2 63/18/2
f 66/21/2 64/19/2 70/25/2
f 66/21/2 60/15/2 64/19/2
f 71/26/2 66/21/2 72/27/2
f 71/26/2 65/20/2 66/21/2
f 73/30/2 68/23/2 74/29/2
f 73/30/2 67/22/2 68/23/2
f 75/32/2 67/22/2 73/30/2
f 75/32/2 69/24/2 67/22/2
f 76/34/2 69/24/2 75/32/2
f 76/34/2 70/25/2 69/24/2
f 72/27/2 70/25/2 76/34/2
f 72/27/2 66/21/2 70/25/2
f 77/37/2 58/13/2 49/2/2
f 77/37/2 78/38/2 58/13/2
f 78/38/2 56/11/2 58/13/2
f 78/38/2 79/40/2 56/11/2
f 79/40/2 54/6/2 56/11/2
f 79/40/2 80/42/2 54/6/2
f 80/42/2 52/7/2 54/6/2
f 80/42/2 81/44/2 52/7/2
f 82/45/2 49/2/2 50/4/2
f 82/45/2 77/37/2 49/2/2
f 53/1/3 83/2/3 84/3/3
f 53/1/3 52/4/3 83/2/3
f 85/8/3 4/7/3 1/9/3
f 85/8/3 86/6/3 4/7/3
f 87/10/3 86/6/3 85/8/3
f 87/10/3 88/11/3 86/6/3
f 89/12/3 88/11/3 87/10/3
f 89/12/3 90/13/3 88/11/3
f 84/3/3 90/13/3 89/12/3
f 84/3/3 83/2/3 90/13/3
f 62/14/3 84/3/3 91/15/3
f 62/14/3 53/1/3 84/3/3
f 92/16/3 1/9/3 14/17/3
f 92/16/3 85/8/3 1/9/3
f 93/18/3 85/8/3 92/16/3
f 93/18/3 87/10/3 85/8/3
f 94/19/3 87/10/3 93/18/3
f 94/19/3 89/12/3 87/10/3
f 91/15/3 89/12/3 94/19/3
f 91/15/3 84/3/3 89/12/3
f 68/20/3 91/15/3 95/21/3
f 68/20/3 62/14/3 91/15/3
f 96/22/3 14/17/3 20/23/3
f 96/22/3 92/16/3 14/17/3
f 97/24/3 92/16/3 96/22/3
f 97/24/3 93/18/3 92/16/3
f 98/25/3 93/18/3 97/24/3
f 98/25/3 94/19/3 93/18/3
f 95/21/3 94/19/3 98/25/3
f 95/21/3 91/15/3 94/19/3
f 74/26/3 95/21/3 99/27/3
f 74/26/3 68/20/3 95/21/3
f 100/28/3 20/23/3 26/29/3
f 100/28/3 96/22/3 20/23/3
f 100/28/3 101/30/3 96/22/3
f 102/31/3 96/22/3 101/30/3
f 102/31/3 97/24/3 96/22/3
f 102/31/3 103/32/3 97/24/3
f 104/33/3 97/24/3 103/32/3
f 104/33/3 98/25/3 97/24/3
f 104/33/3 105/34/3 98/25/3
f 106/35/3 98/25/3 105/34/3
f 106/35/3 95/21/3 98/25/3
f 106/35/3 99/27/3 95/21/3
f 107/36/3 83/2/3 108/37/3
f 107/36/3 90/13/3 83/2/3
f 107/36/3 109/38/3 90/13/3
f 110/39/3 90/13/3 109/38/3
f 110/39/3 88/11/3 90/13/3
f 110/39/3 111/40/3 88/11/3
f 112/41/3 88/11/3 111/40/3
f 112/41/3 86/6/3 88/11/3
f 112/41/3 113/42/3 86/6/3
f 114/47/3 86/6/3 113/42/3
f 114/47/3 4/7/3 86/6/3
f 114/47/3 45/44/3 4/7/3
f 81/45/3 83/2/3 52/4/3
f 81/45/3 108/37/3 83/2/3
f 41/9/4 115/48/4 42/49/4
f 116/50/4 42/49/4 115/48/4
f 116/50/4 43/7/4 42/49/4
f 116/50/4 117/51/4 43/7/4
f 39/17/4 118/52/4 40/53/4
f 119/54/4 40/53/4 118/52/4
f 119/54/4 41/9/4 40/53/4
f 119/54/4 115/48/4 41/9/4
f 39/17/4 120/55/4 118/52/4
f 38/56/4 120/55/4 39/17/4
f 38/56/4 121/57/4 120/55/4
f 38/56/4 122/58/4 121/57/4
f 38/56/4 36/23/4 122/58/4
f 114/59/4 37/60/4 45/29/4
f 123/61/4 37/60/4 114/59/4
f 123/61/4 36/23/4 37/60/4
f 123/61/4 122/58/4 36/23/4
f 44/44/4 117/51/4 124/47/4
f 44/44/4 43/7/4 117/51/4
f 113/30/4 123/61/4 114/59/4
f 113/30/4 125/62/4 123/61/4
f 113/30/4 112/31/4 125/62/4
f 120/55/4 126/63/4 127/64/4
f 120/55/4 121/57/4 126/63/4
f 115/48/4 128/65/4 129/66/4
f 115/48/4 119/54/4 128/65/4
f 116/50/4 130/67/4 117/51/4
f 131/68/4 117/51/4 130/67/4
f 131/68/4 124/47/4 117/51/4
f 131/68/4 132/41/4 124/47/4
f 78/1/4 133/69/4 134/70/4
f 78/1/4 77/4/4 133/69/4
f 130/67/4 135/71/4 131/68/4
f 130/67/4 136/72/4 135/71/4
f 130/67/4 129/66/4 136/72/4
f 135/71/4 134/70/4 133/69/4
f 135/71/4 136/72/4 134/70/4
f 79/14/4 134/70/4 137/73/4
f 79/14/4 78/1/4 134/70/4
f 128/65/4 136/72/4 129/66/4
f 128/65/4 138/74/4 136/72/4
f 128/65/4 139/75/4 138/74/4
f 136/72/4 137/73/4 134/70/4
f 136/72/4 138/74/4 137/73/4
f 80/20/4 137/73/4 140/76/4
f 80/20/4 79/14/4 137/73/4
f 141/77/4 142/78/4 126/63/4
f 138/74/4 126/63/4 142/78/4
f 138/74/4 127/64/4 126/63/4
f 138/74/4 139/75/4 127/64/4
f 138/74/4 140/76/4 137/73/4
f 138/74/4 142/78/4 140/76/4
f 108/27/4 140/76/4 107/35/4
f 108/27/4 80/20/4 140/76/4
f 108/27/4 81/26/4 80/20/4
f 111/32/4 125/62/4 112/31/4
f 142/78/4 111/32/4 110/33/4
f 142/78/4 125/62/4 111/32/4
f 142/78/4 141/77/4 125/62/4
f 109/34/4 142/78/4 110/33/4
f 109/34/4 140/76/4 142/78/4
f 109/34/4 107/35/4 140/76/4
f 143/39/4 133/69/4 144/36/4
f 143/39/4 135/71/4 133/69/4
f 132/41/4 135/71/4 143/39/4
f 132/41/4 131/68/4 135/71/4
f 77/4/4 144/36/4 133/69/4
f 77/4/4 82/45/4 144/36/4
f 17/14/5 157/3/5 158/15/5
f 17/14/5 9/1/5 157/3/5
f 48/9/5 159/16/5 160/8/5
f 48/9/5 59/17/5 159/16/5
f 161/18/5 160/8/5 159/16/5
f 161/18/5 162/10/5 160/8/5
f 163/19/5 162/10/5 161/18/5
f 163/19/5 164/12/5 162/10/5
f 158/15/5 164/12/5 163/19/5
f 158/15/5 157/3/5 164/12/5
f 23/20/5 158/15/5 165/21/5
f 23/20/5 17/14/5 158/15/5
f 59/17/5 166/22/5 159/16/5
f 59/17/5 65/23/5 166/22/5
f 167/24/5 159/16/5 166/22/5
f 167/24/5 161/18/5 159/16/5
f 168/25/5 161/18/5 167/24/5
f 168/25/5 163/19/5 161/18/5
f 165/21/5 163/19/5 168/25/5
f 165/21/5 158/15/5 163/19/5
f 29/26/5 165/21/5 169/27/5
f 29/26/5 23/20/5 165/21/5
f 65/23/5 170/30/5 166/22/5
f 65/23/5 71/29/5 170/30/5
f 171/32/5 166/22/5 170/30/5
f 171/32/5 167/24/5 166/22/5
f 172/34/5 167/24/5 171/32/5
f 172/34/5 168/25/5 167/24/5
f 169/27/5 168/25/5 172/34/5
f 169/27/5 165/21/5 168/25/5
f 173/91/5 157/3/5 174/92/5
f 173/91/5 164/12/5 157/3/5
f 173/91/5 175/93/5 164/12/5
f 175/93/5 162/10/5 164/12/5
f 175/93/5 176/94/5 162/10/5
f 176/94/5 160/8/5 162/10/5
f 176/94/5 177/95/5 160/8/5
f 46/5/5 160/8/5 177/95/5
f 46/5/5 48/9/5 160/8/5
f 5/46/5 157/3/5 9/1/5
f 5/46/5 174/92/5 157/3/5
f 30/96/6 178/3/6 31/1/6
f 30/96/6 179/2/6 178/3/6
f 30/96/6 28/4/6 179/2/6
f 72/7/6 180/8/6 181/6/6
f 72/7/6 76/9/6 180/8/6
f 181/6/6 182/10/6 183/11/6
f 181/6/6 180/8/6 182/10/6
f 183/11/6 184/12/6 185/13/6
f 183/11/6 182/10/6 184/12/6
f 185/13/6 178/3/6 179/2/6
f 185/13/6 184/12/6 178/3/6
f 32/97/6 186/15/6 33/14/6
f 32/97/6 178/3/6 186/15/6
f 32/97/6 31/1/6 178/3/6
f 76/9/6 187/16/6 180/8/6
f 76/9/6 75/17/6 187/16/6
f 180/8/6 188/18/6 182/10/6
f 180/8/6 187/16/6 188/18/6
f 182/10/6 189/19/6 184/12/6
f 182/10/6 188/18/6 189/19/6
f 184/12/6 186/15/6 178/3/6
f 184/12/6 189/19/6 186/15/6
f 34/98/6 190/21/6 35/20/6
f 34/98/6 186/15/6 190/21/6
f 34/98/6 33/14/6 186/15/6
f 75/17/6 191/22/6 187/16/6
f 75/17/6 73/23/6 191/22/6
f 187/16/6 192/24/6 188/18/6
f 187/16/6 191/22/6 192/24/6
f 188/18/6 193/25/6 189/19/6
f 188/18/6 192/24/6 193/25/6
f 189/19/6 190/21/6 186/15/6
f 189/19/6 193/25/6 190/21/6
f 27/99/6 100/27/6 26/26/6
f 27/99/6 190/21/6 100/27/6
f 27/99/6 35/20/6 190/21/6
f 99/28/6 73/23/6 74/29/6
f 99/28/6 191/22/6 73/23/6
f 99/28/6 106/30/6 191/22/6
f 105/31/6 191/22/6 106/30/6
f 105/31/6 192/24/6 191/22/6
f 105/31/6 104/32/6 192/24/6
f 103/33/6 192/24/6 104/32/6
f 103/33/6 193/25/6 192/24/6
f 103/33/6 102/34/6 193/25/6
f 101/35/6 193/25/6 102/34/6
f 101/35/6 190/21/6 193/25/6
f 101/35/6 100/27/6 190/21/6
f 172/38/6 179/2/6 169/37/6
f 172/38/6 185/13/6 179/2/6
f 171/40/6 185/13/6 172/38/6
f 171/40/6 183/11/6 185/13/6
f 170/42/6 183/11/6 171/40/6
f 170/42/6 181/6/6 183/11/6
f 71/44/6 181/6/6 170/42/6
f 71/44/6 72/7/6 181/6/6
f 169/37/6 28/4/6 29/45/6
f 169/37/6 179/2/6 28/4/6
f 174/92/5 124/116/5 173/91/5
f 174/92/5 44/45/5 124/116/5
f 174/92/5 7/4/5 44/45/5
f 174/92/5 5/46/5 7/4/5
f 132/38/5 173/91/5 124/116/5
f 132/38/5 175/93/5 173/91/5
f 143/40/5 177/95/5 176/94/5
f 143/40/5 144/42/5 177/95/5
f 50/7/5 144/42/5 82/44/5
f 50/7/5 177/95/5 144/42/5
f 50/7/5 46/5/5 177/95/5
f 132/38/5 176/94/5 175/93/5
f 132/38/5 143/40/5 176/94/5
usemtl blue_1
f 145/79/4 146/80/4 147/81/4
f 145/79/4 148/82/4 146/80/4
f 147/100/1 129/101/1 130/102/1
f 147/100/1 146/103/1 129/101/1
f 116/111/2 148/112/2 145/110/2
f 116/111/2 115/113/2 148/112/2
f 116/102/3 147/103/3 130/101/3
f 116/102/3 145/100/3 147/103/3
f 129/113/5 148/110/5 115/111/5
f 129/113/5 146/112/5 148/110/5
usemtl cyan_1
f 149/83/4 150/84/4 151/85/4
f 149/83/4 152/86/4 150/84/4
f 139/104/1 150/105/1 127/106/1
f 139/104/1 151/107/1 150/105/1
f 139/104/1 128/108/1 151/107/1
f 118/114/2 149/105/2 119/106/2
f 118/114/2 152/107/2 149/105/2
f 118/114/2 120/108/2 152/107/2
f 119/102/3 151/103/3 128/101/3
f 119/102/3 149/100/3 151/103/3
f 127/113/5 152/110/5 120/111/5
f 127/113/5 150/112/5 152/110/5
usemtl blood_1
f 153/87/4 154/88/4 155/89/4
f 153/87/4 156/90/4 154/88/4
f 141/109/1 154/110/1 125/111/1
f 141/109/1 155/112/1 154/110/1
f 141/109/1 126/113/1 155/112/1
f 122/115/2 153/103/2 121/101/2
f 122/115/2 156/100/2 153/103/2
f 122/115/2 123/102/2 156/100/2
f 121/102/3 155/103/3 126/101/3
f 121/102/3 153/100/3 155/103/3
f 125/113/5 156/110/5 123/111/5
f 125/113/5 154/112/5 156/110/5
